<?xml version="1.0" encoding="UTF-8" standalone="no"?><!DOCTYPE svg PUBLIC "-//W3C//DTD SVG 1.1//EN" "http://www.w3.org/Graphics/SVG/1.1/DTD/svg11.dtd"><svg width="100%" height="100%" viewBox="0 0 137 230" version="1.1" xmlns="http://www.w3.org/2000/svg" xmlns:xlink="http://www.w3.org/1999/xlink" xml:space="preserve" xmlns:serif="http://www.serif.com/" style="fill-rule:evenodd;clip-rule:evenodd;stroke-linejoin:round;stroke-miterlimit:2;"><g><path d="M88.3,96.3l-77.1,129.8l117.5,-146.4l-51.8,1.2l43.7,-72.5c0,-0.1 0,-0.1 0.1,-0.2c0,-0.1 0,-0.2 0.1,-0.3c0.1,-0.1 0,-0.1 0.1,-0.1c0.1,-0.2 0.1,-0.4 0.2,-0.6c0,-0.1 0.1,-0.3 0.2,-0.4c-0.1,-0.2 0,-0.4 0.1,-0.5c0.1,-0.1 0.2,-0.2 0.3,-0.2l0,-0.3c0,-0.1 0.1,-0.3 0.2,-0.4l0,-0.1c0,-0.1 0.1,-0.1 0.1,-0.1l0,-0.1c0,-0.2 0.1,-0.4 0.2,-0.6l-59.6,1.4l-25,104.7l50.7,-14.3Z" style="fill:#f8bd7a;fill-rule:nonzero;"/></g></svg>