<?xml version="1.0" encoding="UTF-8" standalone="no"?><!DOCTYPE svg PUBLIC "-//W3C//DTD SVG 1.1//EN" "http://www.w3.org/Graphics/SVG/1.1/DTD/svg11.dtd"><svg width="100%" height="100%" viewBox="0 0 123 222" version="1.1" xmlns="http://www.w3.org/2000/svg" xmlns:xlink="http://www.w3.org/1999/xlink" xml:space="preserve" xmlns:serif="http://www.serif.com/" style="fill-rule:evenodd;clip-rule:evenodd;stroke-linejoin:round;stroke-miterlimit:2;"><path d="M15.7,130.8l-13.1,90.8l117.5,-146.4l-34.8,-8.8l26.7,-62.5c0,-0.1 0,-0.1 0.1,-0.2c0,-0.1 0,-0.2 0.1,-0.3c0,-0.1 0,-0.1 0.1,-0.1c0.1,-0.2 0.1,-0.4 0.2,-0.6c0,-0.2 0.1,-0.3 0.2,-0.4c-0.1,-0.2 0,-0.4 0.1,-0.5c0.1,-0.1 0.2,-0.2 0.3,-0.2l0,-0.3c0,-0.2 0.1,-0.3 0.2,-0.4l0,-0.1c0,-0.1 0,-0.1 0.1,-0.1l0,-0.1c0,-0.2 0.1,-0.4 0.2,-0.6l-59.6,1.4l-54,114.7l15.7,14.7Z" style="fill:#262b40;fill-rule:nonzero;"/></svg>